<svg width="92" height="79" viewBox="0 0 92 79" fill="none" xmlns="http://www.w3.org/2000/svg">
<path d="M45.6246 72.2866C58.7515 72.2866 69.3928 70.6879 69.3928 68.7158C69.3928 66.7437 58.7515 65.145 45.6246 65.145C32.4978 65.145 21.8564 66.7437 21.8564 68.7158C21.8564 70.6879 32.4978 72.2866 45.6246 72.2866Z" fill="#E4E8EC"/>
<path d="M40.2453 21.5283L33.3039 40.369L24.8564 45.3294L26.1794 57.749L40.777 51.034C42.2448 50.3591 43.4725 49.3555 44.3296 48.1299C45.1868 46.9043 45.6415 45.5022 45.6457 44.0725L45.7092 22.229C45.7095 21.9139 45.6376 21.6019 45.4974 21.3107C45.3573 21.0196 45.1516 20.7549 44.8923 20.5321C44.633 20.3091 44.3251 20.1323 43.9861 20.0117C43.6472 19.8911 43.2839 19.829 42.917 19.829C42.3183 19.8289 41.7355 19.994 41.2545 20.3C40.7735 20.6059 40.4196 21.0365 40.2453 21.5283Z" fill="#FFC195"/>
<path d="M42.9171 19.829C42.2659 19.829 41.6351 20.0247 41.1342 20.382C41.8671 20.3932 42.5657 20.6514 43.0788 21.1011C43.5919 21.5507 43.8785 22.1556 43.8767 22.7852L43.8132 44.6287C43.8091 46.0583 43.3543 47.4604 42.4972 48.686C41.64 49.9117 40.4124 50.9152 38.9446 51.5901L26.1501 57.4733L26.1796 57.749L40.7772 51.034C42.245 50.3591 43.4726 49.3555 44.3298 48.1299C45.187 46.9043 45.6417 45.5022 45.6459 44.0725L45.7093 22.229C45.7097 21.9139 45.6378 21.6019 45.4976 21.3107C45.3574 21.0196 45.1518 20.7549 44.8925 20.5321C44.6332 20.3091 44.3253 20.1323 43.9863 20.0117C43.6473 19.8911 43.284 19.829 42.9171 19.829Z" fill="#FFA688"/>
<path d="M40.2453 21.5283L33.3039 40.369L24.8564 45.3294L26.1794 57.749L40.777 51.034C42.2448 50.3591 43.4725 49.3555 44.3296 48.1299C45.1868 46.9043 45.6415 45.5022 45.6457 44.0725L45.7092 22.229C45.7095 21.9139 45.6376 21.6019 45.4974 21.3107C45.3573 21.0196 45.1516 20.7549 44.8923 20.5321C44.633 20.3091 44.3251 20.1323 43.9861 20.0117C43.6472 19.8911 43.2839 19.829 42.917 19.829C42.3183 19.8289 41.7355 19.994 41.2545 20.3C40.7735 20.6059 40.4196 21.0365 40.2453 21.5283Z" stroke="#171819" stroke-width="2" stroke-linecap="round" stroke-linejoin="round"/>
<path d="M31.4033 43.1174L33.5249 48.6126C33.979 49.788 34.1967 51.0212 34.1689 52.2593L34.0842 56.0789C34.0753 56.4521 33.9418 56.8154 33.6997 57.1254C33.4575 57.4354 33.1167 57.6793 32.718 57.828L18.642 63.0752L13.7246 46.0665L27.5596 41.5485C27.9313 41.4268 28.3278 41.3711 28.7252 41.3847C29.1227 41.3983 29.5127 41.4809 29.8719 41.6275C30.2312 41.7742 30.5521 41.9818 30.8153 42.2378C31.0785 42.4939 31.2785 42.7931 31.4033 43.1174Z" fill="#FFCC00"/>
<path d="M33.5248 48.6127L31.4032 43.1175C31.2355 42.6832 30.9337 42.2961 30.53 41.9976C30.1262 41.699 29.6356 41.5001 29.1106 41.4221L30.8853 46.0183C31.339 47.1935 31.5568 48.4263 31.5293 49.6642L31.4428 53.483C31.4347 53.8563 31.3018 54.2197 31.0598 54.53C30.8179 54.8403 30.4773 55.0842 30.0784 55.2329L17.71 59.8457L18.6447 63.076L32.7207 57.8288C33.1194 57.68 33.46 57.436 33.702 57.1257C33.944 56.8156 34.0773 56.4523 34.086 56.079L34.1706 52.2593C34.1979 51.0211 33.9795 49.788 33.5248 48.6127Z" fill="#FF9770"/>
<path d="M31.4033 43.1174L33.5249 48.6126C33.979 49.788 34.1967 51.0212 34.1689 52.2593L34.0842 56.0789C34.0753 56.4521 33.9418 56.8154 33.6997 57.1254C33.4575 57.4354 33.1167 57.6793 32.718 57.828L18.642 63.0752L13.7246 46.0665L27.5596 41.5485C27.9313 41.4268 28.3278 41.3711 28.7252 41.3847C29.1227 41.3983 29.5127 41.4809 29.8719 41.6275C30.2312 41.7742 30.5521 41.9818 30.8153 42.2378C31.0785 42.4939 31.2785 42.7931 31.4033 43.1174Z" stroke="#171819" stroke-width="2" stroke-linecap="round" stroke-linejoin="round"/>
<path d="M43.4453 30.9562C43.1182 30.9564 42.7952 31.0191 42.4998 31.1395C42.2043 31.26 41.9437 31.4354 41.7368 31.653C42.3076 31.6718 42.8477 31.8798 43.2437 32.2334C43.6397 32.5869 43.8606 33.0584 43.8602 33.549V42.107H45.6514V32.8506C45.651 32.3483 45.4184 31.8667 45.0047 31.5115C44.5911 31.1563 44.0302 30.9566 43.4453 30.9562Z" fill="#FFA688"/>
<path d="M38.7146 40.6803L41.3136 32.3624C41.4392 31.9592 41.7161 31.6029 42.1015 31.3486C42.4869 31.0944 42.9592 30.9564 43.4452 30.9562C44.0308 30.9562 44.5925 31.156 45.0066 31.5115C45.4206 31.867 45.6532 32.3493 45.6532 32.8522V42.107" stroke="#171819" stroke-width="2" stroke-linecap="round" stroke-linejoin="round"/>
<path d="M51.174 21.5283L58.1154 40.369L66.5629 45.3294L65.2399 57.749L50.6423 51.034C49.1745 50.3591 47.9469 49.3555 47.0897 48.1299C46.2325 46.9043 45.7778 45.5022 45.7736 44.0725L45.7092 22.229C45.7091 21.9139 45.7813 21.6019 45.9216 21.3108C46.0619 21.0197 46.2676 20.7551 46.5269 20.5322C46.7863 20.3094 47.0943 20.1326 47.4332 20.0119C47.7721 19.8912 48.1355 19.8291 48.5024 19.829C49.101 19.8289 49.6838 19.994 50.1649 20.3C50.6459 20.6059 50.9997 21.0365 51.174 21.5283Z" fill="#FFC195"/>
<path d="M48.5023 19.829C49.1536 19.829 49.7844 20.0247 50.2853 20.382C49.5523 20.3932 48.8536 20.6514 48.3403 21.101C47.8271 21.5507 47.5403 22.1555 47.5419 22.7852L47.6063 44.6287C47.6104 46.0583 48.0652 47.4604 48.9223 48.686C49.7795 49.9117 51.0071 50.9152 52.4749 51.5901L65.2694 57.4725L65.2399 57.7482L50.6423 51.0332C49.1745 50.3583 47.9469 49.3548 47.0897 48.1291C46.2325 46.9035 45.7778 45.5014 45.7736 44.0717L45.7092 22.2282C45.7092 21.592 46.0034 20.9819 46.5273 20.532C47.051 20.0821 47.7615 19.8292 48.5023 19.829Z" fill="#FFA688"/>
<path d="M51.174 21.5283L58.1154 40.369L66.5629 45.3294L65.2399 57.749L50.6423 51.034C49.1745 50.3591 47.9469 49.3555 47.0897 48.1299C46.2325 46.9043 45.7778 45.5022 45.7736 44.0725L45.7092 22.229C45.7091 21.9139 45.7813 21.6019 45.9216 21.3108C46.0619 21.0197 46.2676 20.7551 46.5269 20.5322C46.7863 20.3094 47.0943 20.1326 47.4332 20.0119C47.7721 19.8912 48.1355 19.8291 48.5024 19.829C49.101 19.8289 49.6838 19.994 50.1649 20.3C50.6459 20.6059 50.9997 21.0365 51.174 21.5283Z" stroke="#171819" stroke-width="2" stroke-linecap="round" stroke-linejoin="round"/>
<path d="M60.0161 43.1175L57.8946 48.6127C57.4409 49.7881 57.2232 51.0212 57.2506 52.2593L57.3362 56.079C57.345 56.4521 57.4783 56.8153 57.7203 57.1253C57.9623 57.4353 58.3028 57.6792 58.7014 57.828L72.7774 63.0752L77.6948 46.0665L63.8571 41.5493C63.4857 41.428 63.0895 41.3726 62.6924 41.3863C62.2953 41.4 61.9056 41.4826 61.5467 41.6292C61.1878 41.7757 60.8672 41.9831 60.6041 42.2389C60.3411 42.4946 60.141 42.7935 60.0161 43.1175Z" fill="#FFCC00"/>
<path d="M57.8946 48.6127L60.0161 43.1175C60.1838 42.6832 60.4857 42.2961 60.8894 41.9976C61.2931 41.699 61.7837 41.5001 62.3087 41.4221L60.5359 46.0183C60.0822 47.1935 59.8644 48.4263 59.8919 49.6642L59.9775 53.4838C59.9856 53.8571 60.1185 54.2205 60.3605 54.5308C60.6023 54.8411 60.943 55.085 61.3418 55.2337L73.7094 59.8457L72.7719 63.076L58.7014 57.828C58.3027 57.6792 57.9621 57.4352 57.7201 57.1249C57.4781 56.8148 57.3448 56.4515 57.3361 56.0782L57.2506 52.2585C57.2233 51.0207 57.441 49.7879 57.8946 48.6127Z" fill="#FF9770"/>
<path d="M60.0161 43.1175L57.8946 48.6127C57.4409 49.7881 57.2232 51.0212 57.2506 52.2593L57.3362 56.079C57.345 56.4521 57.4783 56.8153 57.7203 57.1253C57.9623 57.4353 58.3028 57.6792 58.7014 57.828L72.7774 63.0752L77.6948 46.0665L63.8571 41.5493C63.4857 41.428 63.0895 41.3726 62.6924 41.3863C62.2953 41.4 61.9056 41.4826 61.5467 41.6292C61.1878 41.7757 60.8672 41.9831 60.6041 42.2389C60.3411 42.4946 60.141 42.7935 60.0161 43.1175Z" stroke="#171819" stroke-width="2" stroke-linecap="round" stroke-linejoin="round"/>
<path d="M47.9742 30.9562C48.3008 30.9567 48.6233 31.0195 48.9182 31.14C49.2132 31.2606 49.4733 31.4357 49.6799 31.653C49.1091 31.6718 48.569 31.8798 48.173 32.2334C47.7771 32.5869 47.5561 33.0584 47.5565 33.549V42.107H45.7681V32.8506C45.7685 32.3483 46.0011 31.8667 46.4147 31.5115C46.8284 31.1563 47.3893 30.9566 47.9742 30.9562Z" fill="#FFA688"/>
<path d="M52.705 40.6803L50.106 32.3624C49.9804 31.9592 49.7035 31.6029 49.3181 31.3486C48.9327 31.0944 48.4604 30.9564 47.9744 30.9562C47.3888 30.9562 46.8271 31.156 46.413 31.5115C45.999 31.867 45.7664 32.3493 45.7664 32.8522V42.107" stroke="#171819" stroke-width="2" stroke-linecap="round" stroke-linejoin="round"/>
</svg>
