<svg width="88" height="88" viewBox="0 0 88 88" fill="none" xmlns="http://www.w3.org/2000/svg">
<path fill-rule="evenodd" clip-rule="evenodd" d="M16.5837 0.916016C7.93119 0.916016 0.916992 7.93022 0.916992 16.5827V71.416C0.916992 80.0683 7.93119 87.0827 16.5837 87.0827H71.417C80.0693 87.0827 87.0837 80.0683 87.0837 71.416V16.5827C87.0837 7.93022 80.0693 0.916016 71.417 0.916016H16.5837ZM24.0609 24.0603V25.4846C24.061 30.4373 25.5604 36.3767 28.3692 41.4472C30.8275 45.8852 34.2057 49.5156 38.3035 51.3255V24.0603H49.6971V37.3884C52.2614 36.5968 54.8624 35.2922 56.9296 33.5423C59.4547 31.4053 61.0911 28.6948 61.0911 25.4846V24.0603H72.4851V25.4846C72.4851 32.9533 68.3154 39.3052 62.6511 43.4933C65.4343 45.2868 68.2359 47.6955 70.493 50.4904C73.2782 53.9395 75.3337 58.1033 75.3337 62.515V63.9391H63.9832L63.9405 62.5589C63.8437 59.4279 61.5822 56.5335 58.2542 54.2124C55.5478 52.3246 52.3554 50.9777 49.6971 50.3181V63.9391H44.0003C34.3004 63.9391 26.4377 58.4401 21.0585 50.9843C15.6863 43.5384 12.6671 33.9902 12.667 25.4846V24.0604L24.0609 24.0603Z" fill="white"/>
</svg>
